<svg xmlns="http://www.w3.org/2000/svg" xmlns:xlink="http://www.w3.org/1999/xlink" width="1125" height="368" viewBox="0 0 1125 368">
  <defs>
    <clipPath id="clip-path">
      <path id="Path_2251" data-name="Path 2251" d="M0,0H1125V306a62,62,0,0,1-62,62H62A62,62,0,0,1,0,306Z" fill="#e23c11"/>
    </clipPath>
  </defs>
  <g id="Mask_Group_2" data-name="Mask Group 2" clip-path="url(#clip-path)">
    <g id="app_bar_logo" transform="translate(-0.099 91.345)">
      <rect id="Rectangle_27574" data-name="Rectangle 27574" width="23.651" height="53.295" transform="translate(189.608 5.849)" fill="#fff"/>
      <path id="Path_2253" data-name="Path 2253" d="M213.258,155.782V126.154H189.608v53.295H321.033V155.782Z" fill="#fff"/>
      <path id="Path_2254" data-name="Path 2254" d="M534.612,110.275a92.649,92.649,0,1,1-92.36,92.408,92.649,92.649,0,0,1,92.36-92.408Zm0,23.651A68.9,68.9,0,1,0,583.5,153.936,69,69,0,0,0,534.612,133.925Z" transform="translate(-111.925 -110.275)" fill="#fff"/>
      <path id="Path_2255" data-name="Path 2255" d="M657.962,246.764c24.132,16.568,46.8,24.612,66.322,24.612,28.762,0,45.347-13.412,45.347-25.349,0-39.979-124.343-24.628-124.343-85.342,0-31.695,31.438-50.458,67.043-50.458,23.41,0,48.76,8.012,74.606,24.628l-13.171,20.222c-21.936-13.892-44.866-21.2-63.63-21.2-26.583,0-41.213,13.155-41.213,26.086,0,35.829,124.343,21.456,124.343,85.582,0,26.808-26.567,49.978-69.959,49.978-24.148,0-51.276-9.262-79.253-27.8Z" transform="translate(-111.925 -110.275)" fill="#fff"/>
      <path id="Path_2256" data-name="Path 2256" d="M819.833,116.123H951.8v23.891H843.484v50.667H922.72v23.651H843.484v51.692H951.8v23.651H819.833Z" transform="translate(-111.925 -110.275)" fill="#fff"/>
      <path id="Path_2257" data-name="Path 2257" d="M980.742,116.123h75.311c36.566,0,66.562,28.522,66.562,63.63,0,24.869-15.367,46.324-36.854,56.8l36.854,53.166h-29.227L1061.2,242.9a23.88,23.88,0,0,1-4.134.24h-52.669v46.581H980.742Zm75.311,104.346c23.394,0,42.911-18.043,42.911-40.716-.256-22.433-19.517-40.716-42.911-40.716h-51.66v81.432Z" transform="translate(-111.925 -110.275)" fill="#fff"/>
      <path id="Path_2258" data-name="Path 2258" d="M204.574,214.092a11.217,11.217,0,1,1,11.217-11.217,11.217,11.217,0,0,1-11.217,11.217Z" transform="translate(-111.925 -110.275)" fill="#f39424"/>
      <path id="Path_2259" data-name="Path 2259" d="M1164.917,247.453a21.055,21.055,0,1,1-20.991,21.007,21.055,21.055,0,0,1,20.991-21.007Zm0,5.368a15.687,15.687,0,1,0,11.117,4.555,15.687,15.687,0,0,0-11.117-4.555Z" transform="translate(-111.925 -110.275)" fill="#f39424"/>
      <path id="Path_2260" data-name="Path 2260" d="M1191.869,248.783h7.034l15.511,33.233,15.527-33.2h7.082v39.45h-5.432V257.82l-14.421,30.445H1211.4l-14.165-30.285v30.253h-5.368Z" transform="translate(-111.925 -110.275)" fill="#f39424"/>
      <path id="Path_2261" data-name="Path 2261" d="M265.383,214.092A11.217,11.217,0,1,1,276.6,202.875,11.217,11.217,0,0,1,265.383,214.092Z" transform="translate(-111.925 -110.275)" fill="#f39424"/>
      <rect id="Rectangle_27575" data-name="Rectangle 27575" width="23.651" height="22.337" rx="11.168" transform="translate(189.88 81.48)" fill="#f39424"/>
      <path id="Path_2262" data-name="Path 2262" d="M534.853,214.092a11.217,11.217,0,1,1,11.217-11.217,11.217,11.217,0,0,1-11.217,11.217Z" transform="translate(-111.925 -110.275)" fill="#f39424"/>
      <rect id="Rectangle_27576" data-name="Rectangle 27576" width="22.337" height="22.337" rx="7.948" transform="translate(238.784 81.48)" fill="#f39424"/>
      <rect id="Rectangle_27577" data-name="Rectangle 27577" width="22.337" height="22.337" rx="7.948" transform="translate(287.031 81.48)" fill="#f39424"/>
      <path id="Path_2263" data-name="Path 2263" d="M204.558,273.235a70.312,70.312,0,1,1,51.82-117.806l19.228-12.05a92.649,92.649,0,1,0,0,119.2l-19.228-12.05a70.135,70.135,0,0,1-51.82,22.705Z" transform="translate(-111.925 -110.275)" fill="#f39424"/>
      <path id="Path_2264" data-name="Path 2264" d="M156.6,202.907a47.911,47.911,0,0,0,80.31,35.38l-20.334-12.819a25.638,25.638,0,0,1-35.044-11.457,25.317,25.317,0,0,1,0-22.337,25.638,25.638,0,0,1,35.06-11.441l20.3-12.819A47.911,47.911,0,0,0,156.6,202.779Z" transform="translate(-111.925 -110.275)" fill="#f39424"/>
    </g>
  </g>
</svg>
