<svg id="Layer_1" data-name="Layer 1" xmlns="http://www.w3.org/2000/svg" viewBox="0 0 702.19 115.64"><defs><style>.cls-1{fill:#fff;}.cls-2{fill:#f39424;}</style></defs><rect class="cls-1" x="118.33" y="3.65" width="14.76" height="33.26"/><polygon class="cls-1" points="133.09 97.22 133.09 78.73 118.33 78.73 118.33 111.99 200.35 111.99 200.35 97.22 133.09 97.22"/><path class="cls-1" d="M333.64,68.82A57.82,57.82,0,1,1,276,126.49,57.9,57.9,0,0,1,333.64,68.82Zm0,14.76a43.06,43.06,0,1,0,43.21,42.91A43,43,0,0,0,333.64,83.58Z" transform="translate(-69.85 -68.82)"/><path class="cls-1" d="M410.62,154c15.06,10.34,29.21,15.36,41.39,15.36,17.95,0,28.3-8.37,28.3-15.82,0-24.95-77.6-15.37-77.6-53.26,0-19.78,19.62-31.49,41.84-31.49,14.61,0,30.43,5,46.56,15.37l-8.22,12.62c-13.69-8.67-28-13.23-39.71-13.23-16.59,0-25.72,8.21-25.72,16.28,0,22.36,77.6,13.39,77.6,53.41,0,16.73-16.58,31.19-43.66,31.19-15.07,0-32-5.78-49.46-17.35Z" transform="translate(-69.85 -68.82)"/><path class="cls-1" d="M511.64,72.47H594V87.38H526.4V119h49.45v14.76H526.4v32.26H594v14.76H511.64Z" transform="translate(-69.85 -68.82)"/><path class="cls-1" d="M612.06,72.47h47c22.82,0,41.54,17.8,41.54,39.71,0,15.52-9.59,28.91-23,35.45l23,33.18H682.36l-20.09-29.22a14.9,14.9,0,0,1-2.58.15H626.82v29.07H612.06Zm47,65.12c14.6,0,26.78-11.26,26.78-25.41-.16-14-12.18-25.41-26.78-25.41H626.82v50.82Z" transform="translate(-69.85 -68.82)"/><path class="cls-2" d="M127.67,133.61a7,7,0,1,1,7-7A7.06,7.06,0,0,1,127.67,133.61Z" transform="translate(-69.85 -68.82)"/><path class="cls-2" d="M727,154.43a13.14,13.14,0,1,1-13.1,13.11A13.16,13.16,0,0,1,727,154.43Zm0,3.35a9.79,9.79,0,1,0,9.83,9.76A9.79,9.79,0,0,0,727,157.78Z" transform="translate(-69.85 -68.82)"/><path class="cls-2" d="M743.82,155.26h4.39L757.89,176l9.69-20.72H772v24.62h-3.39v-19l-9,19h-3.6L747.17,161v18.88h-3.35Z" transform="translate(-69.85 -68.82)"/><path class="cls-2" d="M165.62,133.61a7,7,0,1,1,7-7A7.07,7.07,0,0,1,165.62,133.61Z" transform="translate(-69.85 -68.82)"/><rect class="cls-2" x="118.5" y="50.85" width="14.76" height="13.94" rx="6.97"/><path class="cls-2" d="M333.79,133.61a7,7,0,1,1,7-7A7.07,7.07,0,0,1,333.79,133.61Z" transform="translate(-69.85 -68.82)"/><rect class="cls-2" x="149.02" y="50.85" width="13.94" height="13.94" rx="4.96"/><rect class="cls-2" x="179.13" y="50.85" width="13.94" height="13.94" rx="4.96"/><path class="cls-2" d="M127.66,170.52A43.88,43.88,0,1,1,160,97l12-7.52a57.82,57.82,0,1,0,0,74.39l-12-7.52A43.77,43.77,0,0,1,127.66,170.52Z" transform="translate(-69.85 -68.82)"/><path class="cls-2" d="M97.73,126.63a29.9,29.9,0,0,0,50.12,22.08l-12.69-8a16,16,0,0,1-21.87-7.15,15.8,15.8,0,0,1,0-13.94,16,16,0,0,1,21.88-7.14l12.67-8a29.9,29.9,0,0,0-50.11,22.07Z" transform="translate(-69.85 -68.82)"/></svg>